# xmcd CD database file
#
# Track frame offsets:
#	182
#	12550
#	29770
#	44897
#	60625
#	74132
#	89372
#	103097
#	117452
#	134185
#
# Disc length: 1952 seconds
#
# Revision: 3
# Processed by: cddbd v1.5PL3 Copyright (c) Steve Scherf et al.
# Submitted via: CDex 1.51
#
DISCID=a7079e0a
DTITLE=Orrall and Wright - Orrall and Wright
DYEAR=1994
DGENRE=Country
TTITLE0=She Loves Me Like She Means It
TTITLE1=The Last Time I Loved Like That
TTITLE2=I'm Outta Here
TTITLE3=Fall Reaching
TTITLE4=What Do You Want From Me
TTITLE5=Go West Young Man
TTITLE6=You Saved Me
TTITLE7=Pound, Pound, Pound
TTITLE8=If You Could Say What I'm Thinking
TTITLE9=I'll Tell You When I Get There
EXTD=new info YEAR: 1994
EXTT0=
EXTT1=
EXTT2=
EXTT3=
EXTT4=
EXTT5=
EXTT6=
EXTT7=
EXTT8=
EXTT9=
PLAYORDER=
